<?xml version="1.0" encoding="utf-8"?>
<svg viewBox="0 0 165 32" width="165" height="32" fill="none" xmlns="http://www.w3.org/2000/svg">
  <rect width="165" height="32" rx="4" style="fill: rgb(19, 116, 239);"/>
  <rect x="0.5" y="0.5" width="164" height="31" rx="3.5" stroke="black" stroke-opacity="0.1"/>
  <line x1="31.5" y1="2.18557e-08" x2="31.5" y2="32" stroke="black" stroke-opacity="0.1"/>
  <path fill-rule="evenodd" clip-rule="evenodd" d="M 10 9.736 L 23.66 9.736 L 23.66 23 L 10 23 L 10 9.736 Z M 22.263 11.092 L 22.263 21.644 L 11.397 21.644 L 11.397 11.092 L 22.263 11.092 Z" style="fill: rgb(241, 241, 241);"/>
  <path d="M 38.999 21 L 44.752 21 L 44.752 19.819 L 40.37 19.819 L 40.37 17.036 L 44.401 17.036 L 44.401 15.86 L 40.37 15.86 L 40.37 13.09 L 44.698 13.09 L 44.698 11.909 L 38.999 11.909 L 38.999 21 Z M 48.601 21.133 C 49.844 21.133 50.333 20.374 50.572 19.939 L 50.683 19.939 L 50.683 21 L 51.979 21 L 51.979 11.909 L 50.652 11.909 L 50.652 15.287 L 50.572 15.287 C 50.333 14.865 49.88 14.093 48.61 14.093 C 46.963 14.093 45.752 15.394 45.752 17.604 C 45.752 19.81 46.946 21.133 48.601 21.133 Z M 48.894 20.001 C 47.709 20.001 47.092 18.958 47.092 17.591 C 47.092 16.237 47.696 15.221 48.894 15.221 C 50.053 15.221 50.674 16.166 50.674 17.591 C 50.674 19.025 50.04 20.001 48.894 20.001 Z M 53.499 21 L 54.826 21 L 54.826 14.182 L 53.499 14.182 L 53.499 21 Z M 54.169 13.13 C 54.626 13.13 55.008 12.775 55.008 12.34 C 55.008 11.905 54.626 11.545 54.169 11.545 C 53.707 11.545 53.33 11.905 53.33 12.34 C 53.33 12.775 53.707 13.13 54.169 13.13 Z M 59.419 14.182 L 58.021 14.182 L 58.021 12.548 L 56.694 12.548 L 56.694 14.182 L 55.695 14.182 L 55.695 15.247 L 56.694 15.247 L 56.694 19.273 C 56.689 20.512 57.635 21.111 58.682 21.089 C 59.104 21.084 59.388 21.004 59.544 20.947 L 59.304 19.85 C 59.215 19.868 59.051 19.908 58.838 19.908 C 58.407 19.908 58.021 19.766 58.021 18.998 L 58.021 15.247 L 59.419 15.247 L 59.419 14.182 Z M 63.445 21 L 64.773 21 L 64.773 17.165 L 64.773 14.182 L 63.445 14.182 L 63.445 21 Z M 64.116 13.13 C 64.573 13.13 64.955 12.775 64.955 12.34 C 64.955 11.905 64.573 11.545 64.116 11.545 C 63.654 11.545 63.277 11.905 63.277 12.34 C 63.277 12.775 63.654 13.13 64.116 13.13 Z M 67.511 16.952 C 67.511 15.864 68.176 15.243 69.1 15.243 C 70.001 15.243 70.547 15.833 70.547 16.823 L 70.547 21 L 71.874 21 L 71.874 16.663 C 71.874 14.976 70.946 14.093 69.552 14.093 C 68.527 14.093 67.857 14.568 67.542 15.292 L 67.457 15.292 L 67.457 14.182 L 66.183 14.182 L 66.183 21 L 67.511 21 L 67.511 16.952 Z M 83.869 14.865 C 83.559 12.921 82.036 11.785 80.114 11.785 C 77.761 11.785 76.026 13.547 76.026 16.455 C 76.026 19.362 77.752 21.124 80.114 21.124 C 82.111 21.124 83.572 19.873 83.869 18.075 L 82.484 18.07 C 82.249 19.233 81.272 19.873 80.123 19.873 C 78.565 19.873 77.388 18.678 77.388 16.455 C 77.388 14.248 78.56 13.037 80.127 13.037 C 81.286 13.037 82.258 13.689 82.484 14.865 L 83.869 14.865 Z M 87.901 21.138 C 89.823 21.138 91.079 19.731 91.079 17.622 C 91.079 15.5 89.823 14.093 87.901 14.093 C 85.979 14.093 84.723 15.5 84.723 17.622 C 84.723 19.731 85.979 21.138 87.901 21.138 Z M 87.905 20.023 C 86.649 20.023 86.063 18.927 86.063 17.618 C 86.063 16.313 86.649 15.203 87.905 15.203 C 89.153 15.203 89.739 16.313 89.739 17.618 C 89.739 18.927 89.153 20.023 87.905 20.023 Z M 94.738 21.133 C 95.981 21.133 96.469 20.374 96.709 19.939 L 96.82 19.939 L 96.82 21 L 98.116 21 L 98.116 11.909 L 96.789 11.909 L 96.789 15.287 L 96.709 15.287 C 96.469 14.865 96.017 14.093 94.747 14.093 C 93.1 14.093 91.888 15.394 91.888 17.604 C 91.888 19.81 93.082 21.133 94.738 21.133 Z M 95.031 20.001 C 93.846 20.001 93.229 18.958 93.229 17.591 C 93.229 16.237 93.833 15.221 95.031 15.221 C 96.19 15.221 96.811 16.166 96.811 17.591 C 96.811 19.025 96.176 20.001 95.031 20.001 Z M 102.574 21.138 C 104.061 21.138 105.113 20.405 105.415 19.296 L 104.159 19.069 C 103.919 19.713 103.342 20.041 102.587 20.041 C 101.451 20.041 100.687 19.304 100.652 17.99 L 105.499 17.99 L 105.499 17.52 C 105.499 15.056 104.025 14.093 102.481 14.093 C 100.581 14.093 99.329 15.54 99.329 17.635 C 99.329 19.753 100.563 21.138 102.574 21.138 Z M 100.656 16.996 C 100.71 16.028 101.411 15.19 102.49 15.19 C 103.519 15.19 104.194 15.953 104.199 16.996 L 100.656 16.996 Z M 111.662 14.297 L 112.984 14.297 C 112.944 12.841 111.657 11.785 109.811 11.785 C 107.986 11.785 106.588 12.828 106.588 14.395 C 106.588 15.66 107.493 16.401 108.954 16.796 L 110.028 17.089 C 111 17.347 111.75 17.666 111.75 18.474 C 111.75 19.362 110.903 19.948 109.735 19.948 C 108.679 19.948 107.8 19.478 107.72 18.488 L 106.344 18.488 C 106.433 20.134 107.707 21.151 109.744 21.151 C 111.879 21.151 113.109 20.028 113.109 18.488 C 113.109 16.85 111.648 16.215 110.494 15.931 L 109.606 15.7 C 108.896 15.518 107.951 15.185 107.955 14.315 C 107.955 13.543 108.661 12.97 109.78 12.97 C 110.823 12.97 111.564 13.458 111.662 14.297 Z M 116.25 21.151 C 117.378 21.151 118.013 20.578 118.266 20.068 L 118.319 20.068 L 118.319 21 L 119.615 21 L 119.615 16.472 C 119.615 14.488 118.053 14.093 116.97 14.093 C 115.736 14.093 114.599 14.59 114.155 15.833 L 115.403 16.117 C 115.598 15.633 116.095 15.167 116.987 15.167 C 117.844 15.167 118.283 15.616 118.283 16.388 L 118.283 16.419 C 118.283 16.903 117.786 16.894 116.561 17.036 C 115.269 17.187 113.947 17.524 113.947 19.074 C 113.947 20.414 114.954 21.151 116.25 21.151 Z M 116.539 20.086 C 115.789 20.086 115.247 19.748 115.247 19.091 C 115.247 18.381 115.878 18.128 116.646 18.026 C 117.076 17.968 118.097 17.853 118.288 17.662 L 118.288 18.541 C 118.288 19.349 117.644 20.086 116.539 20.086 Z M 122.335 16.952 C 122.335 15.864 123.001 15.243 123.924 15.243 C 124.825 15.243 125.371 15.833 125.371 16.823 L 125.371 21 L 126.699 21 L 126.699 16.663 C 126.699 14.976 125.771 14.093 124.377 14.093 C 123.352 14.093 122.681 14.568 122.366 15.292 L 122.282 15.292 L 122.282 14.182 L 121.008 14.182 L 121.008 21 L 122.335 21 L 122.335 16.952 Z M 130.656 21.133 C 131.899 21.133 132.387 20.374 132.627 19.939 L 132.738 19.939 L 132.738 21 L 134.034 21 L 134.034 11.909 L 132.707 11.909 L 132.707 15.287 L 132.627 15.287 C 132.387 14.865 131.934 14.093 130.665 14.093 C 129.018 14.093 127.806 15.394 127.806 17.604 C 127.806 19.81 129 21.133 130.656 21.133 Z M 130.949 20.001 C 129.764 20.001 129.147 18.958 129.147 17.591 C 129.147 16.237 129.75 15.221 130.949 15.221 C 132.108 15.221 132.729 16.166 132.729 17.591 C 132.729 19.025 132.094 20.001 130.949 20.001 Z M 135.66 21 L 136.956 21 L 136.956 19.939 L 137.067 19.939 C 137.307 20.374 137.795 21.133 139.038 21.133 C 140.689 21.133 141.888 19.81 141.888 17.604 C 141.888 15.394 140.671 14.093 139.025 14.093 C 137.759 14.093 137.302 14.865 137.067 15.287 L 136.987 15.287 L 136.987 11.909 L 135.66 11.909 L 135.66 21 Z M 136.96 17.591 C 136.96 16.166 137.582 15.221 138.741 15.221 C 139.943 15.221 140.547 16.237 140.547 17.591 C 140.547 18.958 139.926 20.001 138.741 20.001 C 137.6 20.001 136.96 19.025 136.96 17.591 Z M 145.875 21.138 C 147.797 21.138 149.053 19.731 149.053 17.622 C 149.053 15.5 147.797 14.093 145.875 14.093 C 143.953 14.093 142.697 15.5 142.697 17.622 C 142.697 19.731 143.953 21.138 145.875 21.138 Z M 145.879 20.023 C 144.623 20.023 144.037 18.927 144.037 17.618 C 144.037 16.313 144.623 15.203 145.879 15.203 C 147.127 15.203 147.713 16.313 147.713 17.618 C 147.713 18.927 147.127 20.023 145.879 20.023 Z M 150.927 14.182 L 149.471 14.182 L 151.566 17.591 L 149.444 21 L 150.9 21 L 152.431 18.452 L 153.967 21 L 155.419 21 L 153.275 17.591 L 155.401 14.182 L 153.95 14.182 L 152.431 16.836 L 150.927 14.182 Z" fill="#191919" style="visibility: hidden;"/>
  <text style="fill: rgb(241, 241, 241); font-family: Arial, sans-serif; font-size: 3.7px; font-weight: 700; white-space: pre;" transform="matrix(5.171016216278076, 0, 0, 4.701265811920166, -158.3047332763672, -44.99501419067383)" x="38.808" y="14.256">View Code</text>
  <rect x="16.896" y="6.864" width="1.452" height="7.392" style="paint-order: stroke; stroke: rgb(19, 116, 239); fill: rgb(19, 116, 239);"/>
  <rect x="21.78" y="12.012" width="1.452" height="7.392" style="paint-order: stroke; fill: rgb(19, 116, 239); stroke: rgb(19, 116, 239); transform-origin: 22.506px 15.708px;" transform="matrix(0, -1, 1, 0, 0, 0)"/>
  <path style="fill: rgb(241, 241, 241); stroke: rgb(241, 241, 241);" d="M 22.572 10.692 L 17.028 16.764"/>
</svg>